<svg width="40" height="40" viewBox="0 0 40 40" fill="none" xmlns="http://www.w3.org/2000/svg">
<g clip-path="url(#clip0_636_80)">
<path fill-rule="evenodd" clip-rule="evenodd" d="M19.9609 0.585938C19.9609 2.1224 19.9609 3.65885 19.9609 5.19531C15.9067 5.28716 12.4171 6.71945 9.49219 9.49219C8.41414 8.45328 7.34647 7.39859 6.28906 6.32812C6.39241 6.26438 6.44448 6.17323 6.44531 6.05469C10.2108 2.46309 14.716 0.64017 19.9609 0.585938Z" fill="#FCD126"/>
<path fill-rule="evenodd" clip-rule="evenodd" d="M19.9609 0.585938C25.4145 0.664077 30.063 2.6172 33.9062 6.44531C33.9425 6.49175 33.9555 6.54384 33.9453 6.60156C33.8361 6.47587 33.7059 6.41077 33.5547 6.40625C32.5234 7.45067 31.4816 8.4793 30.4297 9.49219C27.5195 6.68948 24.0299 5.25719 19.9609 5.19531C19.9609 3.65885 19.9609 2.1224 19.9609 0.585938Z" fill="#FEB603"/>
<path fill-rule="evenodd" clip-rule="evenodd" d="M19.9609 5.19531C24.0299 5.25719 27.5195 6.68948 30.4297 9.49219C33.2378 12.4022 34.6701 15.8918 34.7266 19.9609C34.6709 24.0288 33.2386 27.5184 30.4297 30.4297C27.5066 33.202 24.017 34.6342 19.9609 34.7266C15.8949 34.6655 12.4054 33.2332 9.49219 30.4297C6.68998 27.5213 5.25768 24.0318 5.19531 19.9609C5.25052 15.8939 6.68282 12.4043 9.49219 9.49219C12.4171 6.71945 15.9067 5.28716 19.9609 5.19531Z" fill="#FB8500"/>
<path fill-rule="evenodd" clip-rule="evenodd" d="M6.44531 6.05469C6.44448 6.17323 6.39241 6.26438 6.28906 6.32812C7.34647 7.39859 8.41414 8.45328 9.49219 9.49219C6.68282 12.4043 5.25052 15.8939 5.19531 19.9609C3.65885 19.9609 2.1224 19.9609 0.585938 19.9609C0.626393 14.4962 2.57952 9.8607 6.44531 6.05469Z" fill="#FEB602"/>
<path fill-rule="evenodd" clip-rule="evenodd" d="M33.9453 6.60156C36.6405 9.34445 38.3462 12.6257 39.0625 16.4453C39.2777 17.6075 39.3688 18.7794 39.3359 19.9609C37.7995 19.9609 36.263 19.9609 34.7266 19.9609C34.6701 15.8918 33.2378 12.4022 30.4297 9.49219C31.4816 8.4793 32.5234 7.45067 33.5547 6.40625C33.7059 6.41077 33.8361 6.47587 33.9453 6.60156Z" fill="#FCD126"/>
<path fill-rule="evenodd" clip-rule="evenodd" d="M19.7266 9.72656C19.9976 9.67774 20.2191 9.75586 20.3906 9.96094C21.3412 11.7578 22.2916 13.5547 23.2422 15.3516C25.0569 15.7169 26.8798 16.0424 28.7109 16.3281C29.0254 16.3803 29.3249 16.4715 29.6094 16.6016C29.6615 16.7838 29.6615 16.9662 29.6094 17.1484C28.1498 18.647 26.7045 20.1574 25.2734 21.6797C25.5141 23.5071 25.7875 25.33 26.0937 27.1484C26.1459 27.4349 26.1459 27.7213 26.0937 28.0078C25.9481 28.2193 25.7528 28.2845 25.5078 28.2031C23.6776 27.262 21.8286 26.3635 19.9609 25.5078C18.0995 26.3841 16.2506 27.2826 14.4141 28.2031C14.1691 28.2845 13.9737 28.2193 13.8281 28.0078C13.776 27.7213 13.776 27.4349 13.8281 27.1484C14.1051 25.3263 14.3786 23.5034 14.6484 21.6797C13.2173 20.1574 11.772 18.647 10.3125 17.1484C10.1598 16.7205 10.303 16.473 10.7422 16.4063C12.7219 16.0677 14.701 15.7291 16.6797 15.3906C17.6466 13.4694 18.6623 11.5814 19.7266 9.72656Z" fill="#FCD126"/>
<path fill-rule="evenodd" clip-rule="evenodd" d="M0.585938 19.9609C2.1224 19.9609 3.65885 19.9609 5.19531 19.9609C5.25768 24.0318 6.68998 27.5213 9.49219 30.4297C8.44023 31.4426 7.39855 32.4712 6.36719 33.5156C6.29312 33.5534 6.215 33.5663 6.13281 33.5547C2.47894 29.785 0.629977 25.2538 0.585938 19.9609Z" fill="#FCD126"/>
<path fill-rule="evenodd" clip-rule="evenodd" d="M34.7266 19.9609C36.263 19.9609 37.7995 19.9609 39.3359 19.9609C39.2926 25.3826 37.3655 29.992 33.5547 33.7891C33.567 33.6818 33.5539 33.5776 33.5156 33.4766C32.4973 32.4452 31.4686 31.4295 30.4297 30.4297C33.2386 27.5184 34.6709 24.0288 34.7266 19.9609Z" fill="#FEB602"/>
<path fill-rule="evenodd" clip-rule="evenodd" d="M9.49219 30.4297C12.4054 33.2332 15.8949 34.6655 19.9609 34.7266C19.9609 36.237 19.9609 37.7474 19.9609 39.2578C20.4297 39.2578 20.8984 39.2578 21.3672 39.2578C15.4308 39.623 10.3527 37.722 6.13281 33.5547C6.215 33.5663 6.29312 33.5534 6.36719 33.5156C7.39855 32.4712 8.44023 31.4426 9.49219 30.4297Z" fill="#FEB603"/>
<path fill-rule="evenodd" clip-rule="evenodd" d="M30.4297 30.4297C31.4686 31.4295 32.4973 32.4452 33.5156 33.4766C33.5539 33.5776 33.567 33.6818 33.5547 33.7891C30.1767 37.0918 26.1142 38.9147 21.3672 39.2578C20.8984 39.2578 20.4297 39.2578 19.9609 39.2578C19.9609 37.7474 19.9609 36.237 19.9609 34.7266C24.017 34.6342 27.5066 33.202 30.4297 30.4297Z" fill="#FCD126"/>
</g>
<defs>
<clipPath id="clip0_636_80">
<rect width="40" height="40" fill="white"/>
</clipPath>
</defs>
</svg>
