<svg width="40" height="40" viewBox="0 0 40 40" fill="none" xmlns="http://www.w3.org/2000/svg">
<g clip-path="url(#clip0_637_74)">
<path fill-rule="evenodd" clip-rule="evenodd" d="M19.9609 -0.0390625C20.0131 -0.0390625 20.0651 -0.0390625 20.1172 -0.0390625C24.427 2.46728 28.7238 4.99332 33.0078 7.53906C30.8984 8.73695 28.7891 9.93492 26.6797 11.1328C24.4488 9.84148 22.2223 8.53938 20 7.22656C19.9609 4.80483 19.9479 2.38295 19.9609 -0.0390625Z" fill="#61B300"/>
<path fill-rule="evenodd" clip-rule="evenodd" d="M13.2422 28.7891C13.2422 22.9037 13.2422 17.0182 13.2422 11.1328C15.4642 9.87836 17.6777 8.60234 19.8828 7.30469C19.987 15.7422 19.987 24.1797 19.8828 32.6172C17.6777 31.3195 15.4642 30.0435 13.2422 28.7891Z" fill="#C5E94A"/>
<path fill-rule="evenodd" clip-rule="evenodd" d="M19.8047 -0.0390625C19.8568 -0.0390625 19.9088 -0.0390625 19.9609 -0.0390625C19.9479 2.38295 19.9609 4.80483 20 7.22656C22.2223 8.53938 24.4488 9.84148 26.6797 11.1328C26.6797 17.0182 26.6797 22.9037 26.6797 28.7891C24.4488 30.0804 22.2223 31.3825 20 32.6953C19.9609 35.117 19.9479 37.5389 19.9609 39.9609C19.9088 39.9609 19.8568 39.9609 19.8047 39.9609C15.4949 37.4546 11.198 34.9285 6.91406 32.3828C9.02344 31.1849 11.1328 29.987 13.2422 28.7891C15.4642 30.0435 17.6777 31.3195 19.8828 32.6172C19.987 24.1797 19.987 15.7422 19.8828 7.30469C17.6777 8.60234 15.4642 9.87836 13.2422 11.1328C11.1328 9.93492 9.02344 8.73695 6.91406 7.53906C11.198 4.99332 15.4949 2.46728 19.8047 -0.0390625Z" fill="#91E100"/>
<path opacity="0.994" fill-rule="evenodd" clip-rule="evenodd" d="M6.91406 7.53906C9.02344 8.73695 11.1328 9.93492 13.2422 11.1328C13.2422 17.0182 13.2422 22.9037 13.2422 28.7891C11.1328 29.987 9.02344 31.1849 6.91406 32.3828C6.91406 24.1016 6.91406 15.8203 6.91406 7.53906Z" fill="#62B400"/>
<path fill-rule="evenodd" clip-rule="evenodd" d="M33.0078 7.53906C33.0078 15.8203 33.0078 24.1016 33.0078 32.3828C30.8984 31.1849 28.7891 29.987 26.6797 28.7891C26.6797 22.9037 26.6797 17.0182 26.6797 11.1328C28.7891 9.93492 30.8984 8.73695 33.0078 7.53906Z" fill="#4C8C00"/>
<path fill-rule="evenodd" clip-rule="evenodd" d="M26.6797 28.7891C28.7891 29.987 30.8984 31.1849 33.0078 32.3828C28.7238 34.9285 24.427 37.4546 20.1172 39.9609C20.0651 39.9609 20.0131 39.9609 19.9609 39.9609C19.9479 37.5389 19.9609 35.117 20 32.6953C22.2223 31.3825 24.4488 30.0804 26.6797 28.7891Z" fill="#61B300"/>
</g>
<defs>
<clipPath id="clip0_637_74">
<rect width="40" height="40" fill="white"/>
</clipPath>
</defs>
</svg>
